<?xml version="1.0" encoding="UTF-8"?><svg id="Layer_1" xmlns="http://www.w3.org/2000/svg" viewBox="0 0 100 100"><defs><style>.cls-1{fill:#707070;}</style></defs><path class="cls-1" d="M80.38,47.52c-3.03,0-5.49,2.46-5.49,5.49v24.41c0,.82-.66,1.48-1.48,1.48H24.58c-.82,0-1.48-.66-1.48-1.48V28.6c0-.82,.67-1.48,1.48-1.48h24.41c3.03,0,5.49-2.46,5.49-5.49s-2.46-5.49-5.49-5.49H24.58c-6.88,0-12.47,5.59-12.47,12.47v48.83c0,6.87,5.59,12.47,12.47,12.47h48.83c6.87,0,12.47-5.59,12.47-12.47v-24.41c0-3.03-2.46-5.49-5.49-5.49Z"/><path class="cls-1" d="M72.24,13.48L39.11,46.61c-.53,.53-.9,1.19-1.08,1.91l-3.49,13.95c-.35,1.4,.06,2.89,1.08,3.91,.78,.78,1.83,1.21,2.91,1.21,.33,0,.67-.04,1-.12l13.95-3.49c.72-.18,1.39-.55,1.91-1.08L88.53,29.76c4.49-4.49,4.49-11.8,0-16.29-4.49-4.49-11.8-4.49-16.29,0Z"/></svg>