<svg width="25" height="25" viewBox="0 0 25 25" fill="none" xmlns="http://www.w3.org/2000/svg">
<path d="M14.3546 2.45032H6.35461C5.82418 2.45032 5.31547 2.66103 4.9404 3.0361C4.56533 3.41118 4.35461 3.91988 4.35461 4.45032V20.4503C4.35461 20.9808 4.56533 21.4895 4.9404 21.8645C5.31547 22.2396 5.82418 22.4503 6.35461 22.4503H18.3546C18.885 22.4503 19.3938 22.2396 19.7688 21.8645C20.1439 21.4895 20.3546 20.9808 20.3546 20.4503V8.45032L14.3546 2.45032Z" stroke="black" stroke-width="2" stroke-linecap="round" stroke-linejoin="round"/>
<path d="M14.3546 2.45032V8.45032H20.3546" stroke="black" stroke-width="2" stroke-linecap="round" stroke-linejoin="round"/>
<path d="M16.3546 13.4503H8.35461" stroke="black" stroke-width="2" stroke-linecap="round" stroke-linejoin="round"/>
<path d="M16.3546 17.4503H8.35461" stroke="black" stroke-width="2" stroke-linecap="round" stroke-linejoin="round"/>
<path d="M10.3546 9.45032H9.35461H8.35461" stroke="black" stroke-width="2" stroke-linecap="round" stroke-linejoin="round"/>
</svg>
