<svg width="25" height="25" viewBox="0 0 25 25" fill="none" xmlns="http://www.w3.org/2000/svg">
<path d="M10.3546 13.4503C10.7841 14.0244 11.332 14.4995 11.9612 14.8432C12.5904 15.187 13.2861 15.3914 14.0013 15.4426C14.7164 15.4938 15.4342 15.3906 16.106 15.1401C16.7777 14.8895 17.3877 14.4974 17.8946 13.9903L20.8946 10.9903C21.8054 10.0473 22.3094 8.78426 22.298 7.47328C22.2866 6.16229 21.7607 4.90823 20.8337 3.98119C19.9067 3.05415 18.6526 2.5283 17.3416 2.51691C16.0306 2.50552 14.7676 3.00949 13.8246 3.92028L12.1046 5.63028" stroke="black" stroke-width="2" stroke-linecap="round" stroke-linejoin="round"/>
<path d="M14.3546 11.4503C13.9251 10.8762 13.3772 10.4011 12.748 10.0574C12.1188 9.7136 11.4231 9.50918 10.7079 9.45796C9.99278 9.40675 9.27498 9.50993 8.60322 9.76052C7.93147 10.0111 7.32146 10.4032 6.81457 10.9103L3.81457 13.9103C2.90378 14.8533 2.39981 16.1163 2.4112 17.4273C2.42259 18.7383 2.94844 19.9924 3.87548 20.9194C4.80252 21.8464 6.05658 22.3723 7.36756 22.3837C8.67855 22.3951 9.94156 21.8911 10.8846 20.9803L12.5946 19.2703" stroke="black" stroke-width="2" stroke-linecap="round" stroke-linejoin="round"/>
</svg>
