<?xml version="1.0" encoding="UTF-8"?><svg id="Layer_1" xmlns="http://www.w3.org/2000/svg" viewBox="0 0 100 100"><defs><style>.cls-1{fill:#707070;}</style></defs><path class="cls-1" d="M89.06,20.65H47.35c-2.92-8.17-10.68-14.04-19.84-14.04C15.88,6.61,6.36,16.08,6.36,27.76s9.52,21.15,21.15,21.15c9.96,0,18.24-6.98,20.49-16.24h41.07c2.52,0,4.58-2.7,4.58-6.01s-2.06-6.01-4.58-6.01Zm-52.54,10.59c-1.37,3.66-4.9,6.22-9.02,6.22-5.36,0-9.7-4.35-9.7-9.7s4.35-9.7,9.7-9.7c3.3,0,6.18,1.65,7.92,4.12,.93,1.31,1.42,2.85,1.61,4.49,.04,.44,.15,.84,.15,1.29-.02,1.17-.23,2.29-.67,3.29Z"/><path class="cls-1" d="M72.08,51.1c-9.95,0-18.29,6.98-20.52,16.32H12.45c-2.52,0-4.58,2.67-4.58,5.93s2.06,5.93,4.58,5.93H52.21c2.9,8.21,10.72,14.12,19.87,14.12,11.67,0,21.15-9.47,21.15-21.15s-9.47-21.15-21.15-21.15Zm0,30.85c-3.25,0-6.18-1.65-7.92-4.12-.93-1.31-1.42-2.85-1.61-4.49-.04-.43-.15-.84-.15-1.28,.02-1.17,.23-2.3,.67-3.3,1.37-3.66,4.94-6.22,9.02-6.22,5.36,0,9.7,4.35,9.7,9.7s-4.35,9.7-9.7,9.7Z"/></svg>