<svg width="25" height="25" viewBox="0 0 25 25" fill="none" xmlns="http://www.w3.org/2000/svg">
<path d="M3.35461 6.45032H5.35461H21.3546" stroke="black" stroke-width="2" stroke-linecap="round" stroke-linejoin="round"/>
<path d="M19.3546 6.45032V20.4503C19.3546 20.9808 19.1439 21.4895 18.7688 21.8645C18.3938 22.2396 17.885 22.4503 17.3546 22.4503H7.35461C6.82418 22.4503 6.31547 22.2396 5.9404 21.8645C5.56533 21.4895 5.35461 20.9808 5.35461 20.4503V6.45032M8.35461 6.45032V4.45032C8.35461 3.91988 8.56533 3.41118 8.9404 3.0361C9.31547 2.66103 9.82418 2.45032 10.3546 2.45032H14.3546C14.885 2.45032 15.3938 2.66103 15.7688 3.0361C16.1439 3.41118 16.3546 3.91988 16.3546 4.45032V6.45032" stroke="black" stroke-width="2" stroke-linecap="round" stroke-linejoin="round"/>
<path d="M10.3546 11.4503V17.4503" stroke="black" stroke-width="2" stroke-linecap="round" stroke-linejoin="round"/>
<path d="M14.3546 11.4503V17.4503" stroke="black" stroke-width="2" stroke-linecap="round" stroke-linejoin="round"/>
</svg>
